# xmcd
#
# Track frame offsets: 
#        150
#        14365
#        28145
#        44298
#        58737
#        69908
#        86567
#        99407
#        115971
#        130457
#        148313
#        166241
#        180398
#        194884
#        209111
#
# Disc length: 2989 seconds
#
# Revision: 2
# Processed by: cddbd v1.5.2PL0 Copyright (c) Steve Scherf et al.
# Submitted via: ExactAudioCopy v1.0b1
#
DISCID=e30bab0f
DTITLE=Randy Travis - On The Other Hand: All The Number Ones
DYEAR=2015
DGENRE=Country
TTITLE0=On The Other Hand
TTITLE1=Diggin' Up Bones
TTITLE2=Forever And Ever, Amen
TTITLE3=I Won't Need You Anymore
TTITLE4=Too Gone, Too Long
TTITLE5=I Told You So
TTITLE6=Honky Tonk Moon
TTITLE7=Deeper Than The Holler
TTITLE8=Is It Still Over?
TTITLE9=It's Just A Matter Of Time
TTITLE10=Hard Rock Bottom Of Your Heart
TTITLE11=If I Didn't Have You
TTITLE12=Look Heart, No Hands
TTITLE13=Whisper My Name
TTITLE14=Three Wooden Crosses
EXTD=
EXTT0=
EXTT1=
EXTT2=
EXTT3=
EXTT4=
EXTT5=
EXTT6=
EXTT7=
EXTT8=
EXTT9=
EXTT10=
EXTT11=
EXTT12=
EXTT13=
EXTT14=
PLAYORDER=
